<svg aria-hidden="true" style="position: absolute; width: 0; height: 0; overflow: hidden;" version="1.1" xmlns="http://www.w3.org/2000/svg" xmlns:xlink="http://www.w3.org/1999/xlink">
<defs>
<symbol id="icon-user" viewBox="0 0 32 32">
<path fill="#f6f6f7" style="fill: var(--color1, #f6f6f7)" d="M3.765 0h24.471c2.079 0 3.765 1.686 3.765 3.765v24.471c0 2.079-1.686 3.765-3.765 3.765h-24.471c-2.079 0-3.765-1.686-3.765-3.765v-24.471c0-2.079 1.686-3.765 3.765-3.765z"></path>
<path fill="#fff" style="fill: var(--color2, #fff)" d="M21.49 14.745c0 2.946-2.388 5.333-5.333 5.333s-5.333-2.388-5.333-5.333c0-2.946 2.388-5.333 5.333-5.333s5.333 2.388 5.333 5.333z"></path>
<path fill="#fff" style="fill: var(--color2, #fff)" d="M29.060 32.853c0-1.723-0.339-3.429-0.999-5.020s-1.626-3.038-2.844-4.256c-1.218-1.218-2.664-2.184-4.256-2.844s-3.297-0.999-5.020-0.999c-1.723 0-3.429 0.339-5.020 0.999s-3.038 1.626-4.256 2.844c-1.218 1.218-2.184 2.664-2.844 4.256s-0.999 3.297-0.999 5.020h26.237z"></path>
</symbol>
<symbol id="icon-chevron-down" viewBox="0 0 30 32">
<path fill="none" stroke="#fff" style="stroke: var(--color2, #fff)" stroke-linejoin="round" stroke-linecap="round" stroke-miterlimit="4" stroke-width="2.8235" d="M7.529 12.235l7.529 7.529 7.529-7.529"></path>
</symbol>
<symbol id="icon-menu" viewBox="0 0 32 32">
<path fill="none" stroke="currentColor"  stroke-linejoin="round" stroke-linecap="round" stroke-miterlimit="4" stroke-width="2.6667" d="M4 16h24"></path>
<path fill="none" stroke="currentColor"  stroke-linejoin="round" stroke-linecap="round" stroke-miterlimit="4" stroke-width="2.6667" d="M4 8h24"></path>
<path fill="none" stroke="currentColor"  stroke-linejoin="round" stroke-linecap="round" stroke-miterlimit="4" stroke-width="2.6667" d="M4 24h24"></path>
</symbol>
<symbol id="icon-plus" viewBox="0 0 32 32">
<path stroke-linejoin="round" stroke-linecap="round" stroke-miterlimit="4" stroke-width="3.2" d="M16 6.667v18.667"></path>
<path stroke-linejoin="round" stroke-linecap="round" stroke-miterlimit="4" stroke-width="3.2" d="M6.667 16h18.667"></path>
</symbol>
</defs>
</svg>
